<svg xmlns="http://www.w3.org/2000/svg"  viewBox="0 0 48 48" width="48px" height="48px"><path fill="#373837" d="M9.552,44.456c7.277-0.472,6.212-0.173,11.56-0.173c0.881,0,3.822-0.346,4.703-0.318	c3.437,0.109,4.781,0.072,6.946-0.07c2.96-0.195,9.146,0.579,10.044-0.995c1.438-2.522,1.047-4.894,1.152-7.006	c0.105-2.112-1.095-6.649-1.124-9.606c-0.049-4.98,0.371-7.662,0.593-13.139c0.081-1.999-0.249-3.642-0.487-5.628	c-0.239-1.995-2.382-3.586-6.757-3.586c-4.324,0-4.373,0.235-8.825,0.423c-4.169,0.176-6.083,0.204-7.736,0.195	c-1.333-0.007-3.754-0.049-5.087-0.027c-1.24,0.02-4.974-0.118-6.243-0.015C7.022,4.614,5.029,4.933,4.187,6.555	c-0.25,0.482-0.373,1.026-0.432,1.566c-0.28,2.556,0.112,5.522,0.218,9.233c0.139,4.884,0.166,4.554,0.166,9.415	c0,1.349,0.487,4.97,0.459,6.319c-0.07,3.415-0.068,5.234,0,6.32C4.858,43.578,6.635,44.456,9.552,44.456"/><path fill="#010101" d="M9.568,44.956H9.552c-3.066,0-5.167-0.938-5.453-5.518c-0.07-1.126-0.071-2.97-0.001-6.361	c0.014-0.678-0.112-2.001-0.234-3.281c-0.116-1.214-0.225-2.362-0.225-3.028c0-3.882-0.017-4.421-0.095-7.014l-0.071-2.387	c-0.035-1.246-0.104-2.407-0.167-3.497c-0.127-2.183-0.238-4.069-0.048-5.805c0.075-0.689,0.234-1.259,0.485-1.743	c1.054-2.031,3.654-2.243,4.508-2.312c0.831-0.068,2.611-0.037,4.183-0.008c0.868,0.015,1.647,0.031,2.093,0.022	c0.92-0.014,2.356,0.001,3.599,0.014l1.499,0.014c1.656,0.008,3.605-0.022,7.712-0.195c1.803-0.076,2.872-0.159,3.815-0.233	c1.367-0.106,2.447-0.19,5.03-0.19c4.24,0,6.952,1.505,7.253,4.026c0.055,0.456,0.114,0.894,0.172,1.322	c0.196,1.442,0.381,2.805,0.317,4.386c-0.085,2.102-0.197,3.756-0.305,5.356c-0.17,2.523-0.317,4.702-0.288,7.758	c0.014,1.444,0.316,3.281,0.608,5.058c0.293,1.785,0.57,3.471,0.515,4.578c-0.022,0.442-0.021,0.896-0.021,1.361	c0.001,1.766,0.002,3.768-1.195,5.867c-0.733,1.285-3.384,1.326-7.343,1.241c-1.169-0.025-2.274-0.048-3.103,0.006	c-2.216,0.146-3.606,0.179-6.995,0.07c-0.439-0.012-1.542,0.082-2.512,0.167c-0.897,0.078-1.746,0.152-2.174,0.152	c-1.743,0-2.807-0.032-3.7-0.058c-1.831-0.054-2.937-0.086-7.828,0.23L9.568,44.956z M9.813,4.972c-0.613,0-1.145,0.009-1.481,0.037	C7.086,5.11,5.347,5.404,4.631,6.785c-0.193,0.372-0.317,0.827-0.379,1.39c-0.181,1.653-0.073,3.5,0.052,5.638	c0.064,1.099,0.133,2.27,0.169,3.526l0.07,2.384c0.079,2.605,0.096,3.147,0.096,7.044c0,0.619,0.112,1.795,0.221,2.933	c0.125,1.308,0.253,2.66,0.239,3.396c-0.068,3.318-0.069,5.196-0.001,6.278c0.24,3.843,1.745,4.577,4.439,4.58	c4.926-0.318,6.049-0.285,7.906-0.23c0.886,0.026,1.941,0.058,3.67,0.058c0.385,0,1.25-0.076,2.087-0.148	c1.047-0.091,2.14-0.188,2.631-0.169c3.348,0.105,4.717,0.074,6.898-0.069c0.872-0.057,1.998-0.034,3.189-0.008	c2.372,0.051,5.96,0.127,6.453-0.736c1.065-1.869,1.065-3.649,1.064-5.371c0-0.482,0-0.953,0.022-1.412	c0.05-1-0.219-2.635-0.503-4.366c-0.298-1.814-0.606-3.69-0.621-5.21c-0.03-3.095,0.118-5.292,0.29-7.835	c0.108-1.593,0.219-3.241,0.304-5.329c0.061-1.493-0.119-2.813-0.309-4.21c-0.059-0.434-0.119-0.876-0.175-1.338	c-0.236-1.97-2.576-3.146-6.26-3.146c-2.544,0-3.607,0.083-4.953,0.188c-0.952,0.074-2.03,0.158-3.851,0.235	c-4.127,0.175-6.087,0.207-7.759,0.196L18.115,5.04c-1.233-0.013-2.66-0.03-3.572-0.014c-0.453,0.007-1.245-0.007-2.127-0.022	C11.579,4.989,10.625,4.972,9.813,4.972z"/><path fill="#d6e5e5" d="M13.847,13.456c-2.982,2.982-3.645,5.282-4.591,8.341c-0.637,2.062-0.717,4.502-0.169,6.59	c0.373,1.42,1.166,2.688,1.969,3.917c1.492,2.282,3.142,4.593,5.525,5.915c1.49,0.827,2.994,1.661,5.269,1.871	c4.548,0.418,5.433,0.092,8.682-1.142c2.925-1.111,6.873-5.55,7.928-8.495c1.055-2.945,1.212-4.679,0.792-7.78	c-0.475-3.511-1.338-5.466-3.731-8.079c-2.704-2.952-6.372-4.957-9.906-5.203C19.845,8.989,17.599,10.513,13.847,13.456"/><path fill="#010101" d="M24.867,40.759c-0.833,0-1.817-0.058-3.062-0.172c-2.377-0.219-3.946-1.088-5.462-1.93	c-2.504-1.389-4.191-3.765-5.705-6.081c-0.852-1.303-1.648-2.595-2.034-4.063c-0.56-2.132-0.495-4.698,0.175-6.864l0.063-0.205	c0.921-2.984,1.649-5.34,4.652-8.343c0.014-0.014,0.029-0.027,0.045-0.04c3.75-2.94,6.159-4.586,12.113-4.17	c3.563,0.249,7.391,2.254,10.24,5.365c2.423,2.646,3.361,4.675,3.858,8.349c0.437,3.23,0.253,5.028-0.817,8.015	c-1.059,2.955-5.061,7.593-8.222,8.794C28.33,40.319,27.169,40.759,24.867,40.759z M14.179,13.831	c-2.81,2.816-3.47,4.954-4.382,7.909l-0.063,0.205C9.117,23.94,9.056,26.301,9.57,28.26c0.348,1.323,1.099,2.539,1.904,3.771	c1.445,2.21,3.048,4.475,5.35,5.751c1.495,0.83,2.903,1.611,5.072,1.81c4.454,0.41,5.302,0.087,8.458-1.111	c2.878-1.094,6.667-5.495,7.636-8.197c1.019-2.843,1.184-4.465,0.768-7.544c-0.471-3.481-1.313-5.306-3.604-7.807	c-2.68-2.927-6.258-4.812-9.572-5.042C20.003,9.5,17.825,10.973,14.179,13.831z"/><path fill="#010101" d="M24.411,25.667c-0.434,0-0.886-0.191-1.169-0.499c-0.24-0.261-0.347-0.587-0.301-0.917	c0.04-0.293,0.206-0.555,0.46-0.732c0.008-0.22,0.162-0.416,0.387-0.468c0.519-0.12,1.091,0.075,1.429,0.485	c0.337,0.409,0.417,1.009,0.201,1.494c-0.114,0.252-0.29,0.439-0.508,0.54c-0.161,0.074-0.318,0.09-0.422,0.095	C24.462,25.667,24.437,25.667,24.411,25.667z M24.055,24.31c-0.014,0-0.039,0.004-0.067,0.021c-0.058,0.07-0.062,0.103-0.009,0.161	c0.1,0.108,0.292,0.177,0.458,0.174c0.097-0.137,0.108-0.276,0.068-0.388c-0.13,0.076-0.291,0.093-0.44,0.032	C24.063,24.31,24.06,24.31,24.055,24.31z"/><path fill="#010101" d="M31.407,28.637c-0.065,0-0.131-0.013-0.195-0.04c-1.075-0.456-1.924-0.932-2.823-1.435	c-0.495-0.277-1.004-0.562-1.573-0.855c-0.248-0.127-0.501-0.246-0.755-0.364c-0.747-0.348-1.519-0.708-2.159-1.298	c-0.203-0.187-0.216-0.503-0.029-0.707c0.187-0.203,0.504-0.215,0.707-0.029c0.526,0.485,1.195,0.797,1.904,1.127	c0.266,0.124,0.532,0.248,0.791,0.382c0.579,0.298,1.098,0.589,1.604,0.872c0.875,0.49,1.701,0.953,2.725,1.387	c0.254,0.108,0.373,0.401,0.265,0.656C31.787,28.522,31.602,28.637,31.407,28.637z"/><path fill="#010101" d="M20.187,35.981c-0.061,0-0.123-0.011-0.183-0.035c-0.257-0.101-0.384-0.391-0.283-0.648l0.589-1.493	c0.26-0.656,0.45-1.135,0.645-1.652c0.117-0.312,0.222-0.569,0.325-0.82c0.128-0.313,0.251-0.615,0.39-1.006	c0.277-0.779,0.451-1.316,0.604-1.792c0.207-0.639,0.377-1.167,0.704-1.998c0.299-0.761,0.672-1.709,0.768-2.337	c0.042-0.273,0.297-0.46,0.569-0.419c0.273,0.042,0.461,0.296,0.419,0.569c-0.104,0.684-0.436,1.561-0.826,2.553	c-0.317,0.807-0.482,1.319-0.683,1.939c-0.156,0.482-0.333,1.028-0.613,1.819c-0.145,0.408-0.273,0.723-0.407,1.049	c-0.099,0.243-0.201,0.493-0.315,0.794c-0.196,0.522-0.388,1.005-0.65,1.668l-0.588,1.49C20.575,35.86,20.387,35.981,20.187,35.981z"/><path fill="#ed2224" d="M15.255,28.637c-0.178,0-0.35-0.095-0.44-0.262c-0.131-0.243-0.041-0.546,0.202-0.678	c1.553-0.839,3.223-1.522,4.838-2.184c1.28-0.524,2.604-1.066,3.875-1.686c0.249-0.122,0.548-0.018,0.668,0.23	c0.121,0.248,0.018,0.547-0.23,0.668c-1.299,0.634-2.639,1.183-3.934,1.713c-1.664,0.681-3.236,1.325-4.742,2.138	C15.417,28.618,15.335,28.637,15.255,28.637z"/><path fill="#010101" d="M23.035,16.55c-0.267,0-0.488-0.21-0.499-0.479c-0.012-0.29-0.033-0.514-0.053-0.738	c-0.022-0.237-0.043-0.474-0.056-0.78c-0.004-0.1-0.003-0.316-0.001-0.556c0.001-0.136,0.002-0.28,0.003-0.411	c-0.08,0.111-0.164,0.218-0.257,0.315c-0.021,0.035-0.079,0.119-0.176,0.199c-0.214,0.176-0.528,0.145-0.704-0.068	c-0.173-0.21-0.146-0.52,0.059-0.696c0.019-0.024,0.087-0.113,0.095-0.122c0.122-0.129,0.22-0.28,0.319-0.428	c0.19-0.284,0.405-0.605,0.748-0.832c0.137-0.091,0.309-0.107,0.46-0.048c0.152,0.061,0.265,0.191,0.302,0.351	c0.063,0.271,0.11,0.545,0.138,0.822c0.015,0.148,0.014,0.563,0.011,0.926c-0.002,0.218-0.004,0.416,0,0.505	c0.012,0.288,0.033,0.51,0.053,0.732c0.022,0.239,0.043,0.478,0.056,0.787c0.012,0.276-0.203,0.509-0.479,0.521	C23.049,16.55,23.042,16.55,23.035,16.55z"/><path fill="#010101" d="M25.146,16.213c-0.083,0-0.178-0.013-0.276-0.054c-0.184-0.076-0.328-0.231-0.403-0.437	c-0.162-0.441,0.012-0.899,0.517-1.361l0.922-0.848c0.14-0.128,0.331-0.303,0.361-0.45c0.017-0.081-0.005-0.204-0.028-0.313	c-0.025-0.065-0.188-0.249-0.319-0.249c-0.143,0-0.255,0.017-0.345,0.051c-0.044,0.029-0.196,0.202-0.223,0.318	c-0.062,0.269-0.33,0.439-0.6,0.375c-0.269-0.062-0.437-0.331-0.375-0.6c0.107-0.463,0.521-0.905,0.84-1.027	c0.206-0.079,0.436-0.117,0.703-0.117c0.695,0,1.208,0.616,1.297,1.042c0.045,0.209,0.083,0.461,0.028,0.725	c-0.096,0.461-0.438,0.774-0.664,0.981l-0.804,0.74c0.047-0.016,0.095-0.032,0.143-0.046c0.339-0.098,0.692,0.01,1.034,0.115	c0.104,0.032,0.208,0.065,0.309,0.088c0.269,0.062,0.437,0.331,0.375,0.6c-0.062,0.27-0.332,0.438-0.6,0.375	c-0.123-0.028-0.251-0.067-0.378-0.106c-0.146-0.045-0.394-0.112-0.469-0.108c-0.093,0.027-0.19,0.066-0.288,0.105	c-0.189,0.075-0.379,0.147-0.579,0.184C25.277,16.204,25.215,16.213,25.146,16.213z"/><path fill="#010101" d="M35.396,27.16c-0.142,0-0.282-0.017-0.418-0.052c-0.391-0.101-0.724-0.308-0.998-0.498	c-0.227-0.157-0.284-0.469-0.126-0.696c0.157-0.228,0.468-0.285,0.696-0.126c0.201,0.139,0.439,0.29,0.677,0.351	c0.176,0.046,0.372,0.018,0.557-0.077C36,25.951,36.11,25.693,36.121,25.5c0.015-0.291-0.007-0.476-0.167-0.619	c-0.112-0.101-0.228-0.168-0.549-0.253c-0.093-0.025-0.17-0.039-0.245-0.054c-0.115-0.022-0.227-0.044-0.368-0.085	c-0.192-0.057-0.333-0.222-0.356-0.421c-0.023-0.199,0.074-0.393,0.248-0.493c0.246-0.141,0.468-0.333,0.643-0.554	c0.087-0.109,0.102-0.156,0.104-0.171c0.021-0.142-0.012-0.207-0.047-0.251c-0.167-0.089-0.228-0.078-0.245-0.065	c-0.068,0.05-0.132,0.15-0.183,0.291c-0.094,0.26-0.38,0.396-0.64,0.301c-0.26-0.094-0.395-0.38-0.301-0.64	c0.12-0.333,0.3-0.59,0.536-0.761c0.286-0.207,0.668-0.259,1.05-0.142c0.302,0.092,0.498,0.309,0.568,0.398	c0.221,0.281,0.307,0.632,0.25,1.016c-0.042,0.282-0.196,0.503-0.309,0.645c-0.034,0.043-0.069,0.085-0.105,0.126	c0.222,0.083,0.423,0.194,0.617,0.369c0.545,0.49,0.511,1.139,0.497,1.417c-0.033,0.592-0.378,1.14-0.879,1.397	C35.971,27.09,35.682,27.16,35.396,27.16z"/><path fill="#010101" d="M25.508,38.314c-0.297,0-0.792-0.049-1.137-0.335c-0.251-0.208-0.598-0.557-0.71-1.17	c-0.106-0.582-0.077-0.745,0.043-1.218c0.028-0.111,0.062-0.246,0.102-0.42c0.225-0.99,0.955-1.827,1.907-2.184	c0.257-0.095,0.546,0.035,0.644,0.293c0.097,0.258-0.034,0.547-0.293,0.644c-0.491,0.184-0.905,0.575-1.134,1.048	c0.171-0.053,0.348-0.085,0.525-0.092c0.561-0.025,1.062,0.203,1.418,0.632c0.439,0.53,0.485,1.545,0.094,2.087	c-0.279,0.387-0.708,0.637-1.206,0.702C25.758,38.302,25.659,38.314,25.508,38.314z M24.604,36.384	c0.008,0.065,0.021,0.143,0.04,0.246c0.05,0.271,0.182,0.429,0.365,0.581c0.107,0.089,0.471,0.117,0.621,0.1	c0.223-0.029,0.409-0.134,0.525-0.295c0.124-0.172,0.092-0.689-0.053-0.865c-0.157-0.19-0.357-0.289-0.608-0.271	c-0.33,0.013-0.681,0.208-0.875,0.483C24.614,36.37,24.609,36.377,24.604,36.384z"/><path fill="#010101" d="M12.561,27.585c-0.301,0-0.595-0.08-0.868-0.239c-0.238-0.14-0.318-0.446-0.179-0.684	c0.14-0.239,0.446-0.319,0.684-0.179c0.253,0.149,0.54,0.134,0.852-0.044c0.348-0.198,0.616-0.54,0.745-0.849	c-0.249,0.112-0.517,0.178-0.788,0.188c-0.568,0.025-1.082-0.206-1.444-0.644c-0.448-0.541-0.495-1.575-0.096-2.127	c0.283-0.394,0.72-0.648,1.228-0.715c0.01-0.002,0.893-0.109,1.418,0.328c0.212,0.176,0.655,0.544,0.73,1.229	c0.05,0.466,0.049,0.521,0.042,0.885l-0.007,0.508c-0.006,0.761-0.567,1.63-1.335,2.066C13.219,27.492,12.886,27.585,12.561,27.585z M12.939,23.276c-0.043,0-0.083,0.002-0.114,0.006c-0.231,0.03-0.426,0.14-0.547,0.308c-0.133,0.185-0.101,0.717,0.055,0.905	c0.164,0.198,0.375,0.291,0.635,0.283c0.342-0.014,0.708-0.215,0.91-0.502c0.001-0.001,0.001-0.002,0.002-0.003	c-0.006-0.08-0.016-0.177-0.031-0.317c-0.026-0.237-0.152-0.383-0.375-0.568C13.382,23.311,13.121,23.276,12.939,23.276z"/></svg>